<svg xmlns="http://www.w3.org/2000/svg" viewBox="0 8.84000015258789 161.2100067138672 46.95000076293945" data-asc="0.9052734375"><g fill="#ffffff"><g fill="#ffffff" transform="translate(0, 0)"><path d="M0 45.26L0 9.47L7.13 9.47L15.60 34.81Q16.77 38.35 17.31 40.11Q17.92 38.16 19.21 34.38L27.78 9.47L34.16 9.47L34.16 45.26L29.59 45.26L29.59 15.31L19.19 45.26L14.92 45.26L4.57 14.79L4.57 45.26L0 45.26ZM41.04 55.25L40.55 51.12Q41.99 51.51 43.07 51.51Q44.53 51.51 45.41 51.03Q46.29 50.54 46.85 49.66Q47.27 49.00 48.19 46.39Q48.32 46.02 48.58 45.31L38.75 19.34L43.48 19.34L48.88 34.35Q49.93 37.21 50.76 40.36Q51.51 37.33 52.56 34.45L58.11 19.34L62.50 19.34L52.64 45.70Q51.05 49.98 50.17 51.59Q49.00 53.76 47.49 54.77Q45.97 55.79 43.87 55.79Q42.60 55.79 41.04 55.25ZM65.19 33.76L69.65 33.37Q69.97 36.06 71.13 37.78Q72.29 39.50 74.73 40.56Q77.17 41.63 80.22 41.63Q82.93 41.63 85.01 40.82Q87.08 40.01 88.10 38.61Q89.11 37.21 89.11 35.55Q89.11 33.86 88.13 32.60Q87.16 31.35 84.91 30.49Q83.47 29.93 78.54 28.75Q73.61 27.56 71.63 26.51Q69.07 25.17 67.81 23.18Q66.55 21.19 66.55 18.73Q66.55 16.02 68.09 13.66Q69.63 11.30 72.58 10.08Q75.54 8.86 79.15 8.86Q83.13 8.86 86.17 10.14Q89.21 11.43 90.84 13.92Q92.48 16.41 92.60 19.56L88.06 19.90Q87.70 16.50 85.58 14.77Q83.47 13.04 79.35 13.04Q75.05 13.04 73.08 14.61Q71.12 16.19 71.12 18.41Q71.12 20.34 72.51 21.58Q73.88 22.83 79.65 24.13Q85.42 25.44 87.57 26.42Q90.70 27.86 92.19 30.07Q93.68 32.28 93.68 35.16Q93.68 38.01 92.04 40.54Q90.41 43.07 87.34 44.47Q84.28 45.87 80.44 45.87Q75.59 45.87 72.30 44.46Q69.02 43.04 67.15 40.20Q65.28 37.35 65.19 33.76ZM127.27 41.43Q130.57 43.70 133.35 44.75L131.96 48.05Q128.10 46.66 124.27 43.65Q120.29 45.87 115.48 45.87Q110.62 45.87 106.67 43.53Q102.71 41.19 100.57 36.94Q98.44 32.69 98.44 27.37Q98.44 22.07 100.59 17.72Q102.73 13.38 106.70 11.11Q110.67 8.84 115.58 8.84Q120.53 8.84 124.51 11.19Q128.49 13.55 130.58 17.79Q132.67 22.02 132.67 27.34Q132.67 31.76 131.32 35.29Q129.98 38.82 127.27 41.43M116.85 35.38Q120.95 36.52 123.61 38.79Q127.78 34.99 127.78 27.34Q127.78 23.00 126.31 19.75Q124.83 16.50 121.98 14.71Q119.14 12.92 115.60 12.92Q110.30 12.92 106.81 16.54Q103.32 20.17 103.32 27.37Q103.32 34.35 106.77 38.09Q110.23 41.82 115.60 41.82Q118.14 41.82 120.39 40.87Q118.16 39.43 115.70 38.82L116.85 35.38ZM138.84 45.26L138.84 9.47L143.58 9.47L143.58 41.04L161.21 41.04L161.21 45.26L138.84 45.26Z"/></g></g></svg>